<?xml version="1.0" encoding="UTF-8"?>
<!DOCTYPE svg PUBLIC "-//W3C//DTD SVG 1.1//EN" "http://www.w3.org/Graphics/SVG/1.1/DTD/svg11.dtd">
<svg xmlns="http://www.w3.org/2000/svg" version="1.1" width="1000px" height="1000px" style="shape-rendering:geometricPrecision; text-rendering:geometricPrecision; image-rendering:optimizeQuality; fill-rule:evenodd; clip-rule:evenodd" xmlns:xlink="http://www.w3.org/1999/xlink">
<g><path style="opacity:1" fill="#000000" d="M -0.5,-0.5 C 332.833,-0.5 666.167,-0.5 999.5,-0.5C 999.5,332.833 999.5,666.167 999.5,999.5C 666.167,999.5 332.833,999.5 -0.5,999.5C -0.5,666.167 -0.5,332.833 -0.5,-0.5 Z"/></g>
<g><path style="opacity:1" fill="#f4f4f4" d="M 685.5,662.5 C 683.544,668.412 682.877,674.745 683.5,681.5C 680.066,704.781 667.399,720.948 645.5,730C 640.286,731.637 634.953,732.637 629.5,733C 588.833,733.667 548.167,733.667 507.5,733C 465.269,731.287 424.436,722.787 385,707.5C 381.451,710.694 377.618,713.527 373.5,716C 371.212,716.822 368.878,717.489 366.5,718C 336.167,718.667 305.833,718.667 275.5,718C 263.868,715.036 256.034,707.869 252,696.5C 251.333,619.5 251.333,542.5 252,465.5C 255.599,453.567 263.432,446.067 275.5,443C 305.833,442.333 336.167,442.333 366.5,443C 371.346,443.777 375.679,445.61 379.5,448.5C 400.586,439.891 419.419,427.891 436,412.5C 448.215,393.056 456.882,372.056 462,349.5C 465.981,331.616 469.314,313.616 472,295.5C 482.352,272.742 499.852,263.242 524.5,267C 550.491,273.307 568.991,288.807 580,313.5C 590.306,342.218 592.306,371.551 586,401.5C 584.526,408.902 582.359,416.069 579.5,423C 620.195,423.041 660.862,423.707 701.5,425C 734.747,435.626 749.913,458.459 747,493.5C 745.48,501.063 742.98,508.229 739.5,515C 754.009,544.783 749.343,571.116 725.5,594C 722.5,595.833 719.5,597.667 716.5,599.5C 718.763,623.212 710.763,642.712 692.5,658C 690.102,659.524 687.769,661.024 685.5,662.5 Z"/></g>
<g><path style="opacity:1" fill="#000000" d="M 509.5,296.5 C 526.2,295.932 539.033,302.598 548,316.5C 558.324,338.054 561.657,360.721 558,384.5C 557.18,391.269 555.846,397.935 554,404.5C 550.046,416.403 545.546,428.07 540.5,439.5C 542.196,446.696 546.529,451.529 553.5,454C 600.833,454.333 648.167,454.667 695.5,455C 710.526,458.68 717.859,468.346 717.5,484C 717.011,489.781 715.511,495.281 713,500.5C 703.054,510.24 703.054,519.907 713,529.5C 719.637,543.372 718.47,556.539 709.5,569C 703.794,573.017 697.461,575.684 690.5,577C 685.653,580.334 682.653,584.834 681.5,590.5C 683.706,596.823 685.039,603.323 685.5,610C 685.634,618.939 682.634,626.606 676.5,633C 670.597,636.636 664.263,639.303 657.5,641C 654.96,643.205 652.793,645.705 651,648.5C 650.333,651.833 650.333,655.167 651,658.5C 656.204,671.904 654.371,684.238 645.5,695.5C 642.617,698.109 639.283,699.942 635.5,701C 612.048,702.147 588.548,702.647 565,702.5C 505.046,707.316 447.046,698.983 391,677.5C 390.333,610.5 390.333,543.5 391,476.5C 410.407,467.555 428.574,456.721 445.5,444C 459.825,431.339 470.659,416.172 478,398.5C 489.882,367.97 497.548,336.303 501,303.5C 502.851,299.843 505.684,297.51 509.5,296.5 Z"/></g>
<g><path style="opacity:1" fill="#757675" d="M 280.5,472.5 C 307.5,472.5 334.5,472.5 361.5,472.5C 361.5,544.5 361.5,616.5 361.5,688.5C 334.5,688.5 307.5,688.5 280.5,688.5C 280.5,616.5 280.5,544.5 280.5,472.5 Z"/></g>
<g><path style="opacity:1" fill="#000000" d="M 281.5,473.5 C 307.833,473.5 334.167,473.5 360.5,473.5C 360.5,544.833 360.5,616.167 360.5,687.5C 334.167,687.5 307.833,687.5 281.5,687.5C 281.5,616.167 281.5,544.833 281.5,473.5 Z"/></g>
<g><path style="opacity:1" fill="#6e6e6e" d="M 685.5,662.5 C 684.87,668.934 684.203,675.267 683.5,681.5C 682.877,674.745 683.544,668.412 685.5,662.5 Z"/></g>
</svg>
