<?xml version="1.0" encoding="UTF-8"?>
<svg version="1.1" xmlns="http://www.w3.org/2000/svg" width="1000" height="1000">
<path d="M0 0 C330 0 660 0 1000 0 C1000 330 1000 660 1000 1000 C670 1000 340 1000 0 1000 C0 670 0 340 0 0 Z " fill="#000000" transform="translate(0,0)"/>
<path d="M0 0 C3.67370315 3.06909859 7.06199337 6.38213628 10.42822266 9.78271484 C11.08564453 10.41822266 11.74306641 11.05373047 12.42041016 11.70849609 C34.35359571 34.50081565 36.0321867 68.67625706 35.60562134 98.39260864 C35.35008694 111.06886055 32.84420515 122.681439 29.31103516 134.82177734 C29.03332275 135.78446533 28.75561035 136.74715332 28.46948242 137.73901367 C27.79157002 140.08765211 27.11110679 142.43551813 26.42822266 144.78271484 C27.30561442 144.78629737 27.30561442 144.78629737 28.20073128 144.78995228 C42.49273878 144.84932113 56.78459279 144.92500901 71.07641792 145.01842976 C77.98810416 145.06322345 84.89974075 145.10267496 91.81152344 145.12915039 C98.49008654 145.15474797 105.16839713 145.19576152 111.84682846 145.24590111 C114.38628226 145.26250026 116.92577451 145.27405757 119.46527481 145.28032875 C140.79178993 145.33828992 161.1536412 145.85774836 177.47119141 161.63037109 C188.62691558 173.89944099 193.83210827 188.53734009 193.80322266 204.97021484 C193.80233643 205.88424072 193.8014502 206.7982666 193.80053711 207.73999023 C193.64587514 216.67034517 192.17704746 224.99817499 187.66650391 232.84912109 C186.12026522 235.66876469 186.12026522 235.66876469 187.11181641 238.28271484 C187.54623047 239.10771484 187.98064453 239.93271484 188.42822266 240.78271484 C189.13112117 242.77735515 189.81810847 244.77765963 190.49072266 246.78271484 C191.003125 248.29865234 191.003125 248.29865234 191.52587891 249.84521484 C196.44732986 265.86656168 194.14313126 283.72789764 186.74072266 298.53271484 C180.92736961 308.4401837 172.75957875 316.61703679 162.42822266 321.78271484 C162.46302734 322.60771484 162.49783203 323.43271484 162.53369141 324.28271484 C162.95401789 342.2166448 159.5728898 359.55265372 146.92211914 372.96923828 C142.48646335 377.42507196 138.03482834 380.90200988 132.42822266 383.78271484 C131.76822266 383.78271484 131.10822266 383.78271484 130.42822266 383.78271484 C130.48042969 385.72210937 130.48042969 385.72210937 130.53369141 387.70068359 C130.8950439 406.6370144 128.26389347 422.43511529 114.63916016 436.60302734 C113.90955078 437.32232422 113.17994141 438.04162109 112.42822266 438.78271484 C111.58130859 439.64509766 111.58130859 439.64509766 110.71728516 440.52490234 C94.2482542 456.02989247 70.68343394 454.22671488 49.76025391 454.14599609 C47.07247842 454.14547592 44.38471864 454.14594847 41.69694519 454.14750671 C36.07647657 454.14838483 30.45612961 454.13742453 24.83569336 454.11889648 C18.42274551 454.09787101 12.00997716 454.0941932 5.59700185 454.10045844 C-0.65961679 454.10624875 -6.9161749 454.1003868 -13.17278481 454.0892849 C-15.79200351 454.08475051 -18.41112234 454.08425652 -21.03035545 454.08587074 C-44.31348258 454.08826806 -67.91423424 453.70540047 -90.88427734 449.53271484 C-92.74693237 449.2052124 -92.74693237 449.2052124 -94.6472168 448.87109375 C-116.78057914 444.86026451 -138.03088836 438.33405332 -159.39503479 431.4198761 C-163.92608375 429.87229278 -163.92608375 429.87229278 -168.57177734 428.78271484 C-170.65746028 430.30119921 -172.2943462 432.0690603 -174.08349609 433.92333984 C-180.27866037 438.55269337 -187.47476035 439.22632686 -194.98779297 439.17089844 C-196.32870247 439.17878387 -196.32870247 439.17878387 -197.69670105 439.18682861 C-200.62399255 439.19993075 -203.55073122 439.19132539 -206.47802734 439.18115234 C-208.52868757 439.18317589 -210.5793471 439.18608966 -212.63000488 439.18984985 C-216.9168181 439.19425996 -221.20344312 439.18788448 -225.49023438 439.17382812 C-230.96758254 439.15673716 -236.44448959 439.16658539 -241.92182159 439.18454552 C-246.15304856 439.19541885 -250.38417204 439.19192074 -254.61540222 439.18416214 C-256.63429314 439.18216994 -258.65319365 439.18458472 -260.67207336 439.1916008 C-263.50022038 439.19927386 -266.3276665 439.18752951 -269.15576172 439.17089844 C-270.39044441 439.18000748 -270.39044441 439.18000748 -271.65007019 439.18930054 C-279.35207203 439.1059697 -286.54455395 437.42321683 -292.38427734 432.15771484 C-293.09197266 431.54669922 -293.79966797 430.93568359 -294.52880859 430.30615234 C-299.80992036 423.78302002 -301.16314954 417.12195069 -301.07298279 408.90867615 C-301.07851718 407.95516315 -301.08405158 407.00165015 -301.08975369 406.01924282 C-301.10329377 402.84564719 -301.08842689 399.67284709 -301.07348633 396.49926758 C-301.07727188 394.21537951 -301.08277387 391.93149374 -301.08985901 389.64761353 C-301.10379909 383.45969214 -301.09265409 377.27204926 -301.07614779 371.0841434 C-301.06227887 364.60297356 -301.06875942 358.12181959 -301.07228088 351.64064026 C-301.07498134 340.75867131 -301.06160881 329.87681529 -301.03833008 318.99487305 C-301.01440604 307.80993555 -301.00732899 296.62514404 -301.01782227 285.44018555 C-301.03046189 271.94331768 -301.02792992 258.44656184 -301.01216316 244.94969368 C-301.00640902 239.80115239 -301.00648156 234.65265996 -301.01122856 229.50411797 C-301.01600498 223.44082267 -301.00586879 217.37772913 -300.98427391 211.3144722 C-300.97871524 209.09089018 -300.97823228 206.86728873 -300.98322678 204.64370537 C-300.98919463 201.60550391 -300.97664527 198.56791614 -300.9594574 195.5297699 C-300.96546744 194.65262075 -300.97147749 193.77547161 -300.97766966 192.87174219 C-300.88953942 184.2882851 -298.42216114 177.88712766 -292.54052734 171.54443359 C-285.79489026 165.50815914 -278.46627993 164.63320174 -269.72338867 164.62158203 C-268.83017914 164.61661713 -267.9369696 164.61165222 -267.01669312 164.60653687 C-264.06239041 164.59193583 -261.10814145 164.58511583 -258.15380859 164.57958984 C-256.0960032 164.57383568 -254.03819783 164.56807798 -251.98039246 164.56231689 C-247.66376496 164.55181205 -243.34715606 164.54596634 -239.03051758 164.54248047 C-233.51383457 164.53700395 -227.99739939 164.51299164 -222.48079395 164.48450851 C-218.22813717 164.46583223 -213.9755394 164.46067382 -209.72284508 164.45914459 C-207.68998552 164.45612763 -205.65712676 164.44813159 -203.62430763 164.43495941 C-200.77172959 164.41779832 -197.91974818 164.41980392 -195.06713867 164.42626953 C-194.23616165 164.41705475 -193.40518463 164.40783997 -192.54902649 164.39834595 C-186.045449 164.44424516 -180.20662033 165.76926597 -174.4823885 168.94009018 C-172.4631552 170.08689236 -172.4631552 170.08689236 -169.84545898 168.86743164 C-168.81799561 168.32771729 -167.79053223 167.78800293 -166.73193359 167.23193359 C-165.59256348 166.64001221 -164.45319336 166.04809082 -163.27929688 165.43823242 C-162.0636167 164.78347581 -160.8486217 164.12744562 -159.63427734 163.47021484 C-158.39594458 162.8120465 -157.15750042 162.15408772 -155.91894531 161.49633789 C-147.73358367 157.11350129 -139.86563291 152.57067607 -132.57177734 146.78271484 C-132.02392578 146.35394043 -131.47607422 145.92516602 -130.91162109 145.48339844 C-97.08245312 118.81549449 -88.60201665 69.26660839 -83.00927734 28.78271484 C-81.02561684 14.76052502 -75.98648416 4.92320651 -65.13427734 -4.38916016 C-46.81636431 -17.45742738 -17.28160647 -13.38398414 0 0 Z " fill="#010101" transform="translate(553.57177734375,279.21728515625)"/>
<path d="M0 0 C3.67370315 3.06909859 7.06199337 6.38213628 10.42822266 9.78271484 C11.08564453 10.41822266 11.74306641 11.05373047 12.42041016 11.70849609 C34.35359571 34.50081565 36.0321867 68.67625706 35.60562134 98.39260864 C35.35008694 111.06886055 32.84420515 122.681439 29.31103516 134.82177734 C29.03332275 135.78446533 28.75561035 136.74715332 28.46948242 137.73901367 C27.79157002 140.08765211 27.11110679 142.43551813 26.42822266 144.78271484 C27.30561442 144.78629737 27.30561442 144.78629737 28.20073128 144.78995228 C42.49273878 144.84932113 56.78459279 144.92500901 71.07641792 145.01842976 C77.98810416 145.06322345 84.89974075 145.10267496 91.81152344 145.12915039 C98.49008654 145.15474797 105.16839713 145.19576152 111.84682846 145.24590111 C114.38628226 145.26250026 116.92577451 145.27405757 119.46527481 145.28032875 C140.79178993 145.33828992 161.1536412 145.85774836 177.47119141 161.63037109 C188.62691558 173.89944099 193.83210827 188.53734009 193.80322266 204.97021484 C193.80233643 205.88424072 193.8014502 206.7982666 193.80053711 207.73999023 C193.64587514 216.67034517 192.17704746 224.99817499 187.66650391 232.84912109 C186.12026522 235.66876469 186.12026522 235.66876469 187.11181641 238.28271484 C187.54623047 239.10771484 187.98064453 239.93271484 188.42822266 240.78271484 C189.13112117 242.77735515 189.81810847 244.77765963 190.49072266 246.78271484 C191.003125 248.29865234 191.003125 248.29865234 191.52587891 249.84521484 C196.44732986 265.86656168 194.14313126 283.72789764 186.74072266 298.53271484 C180.92736961 308.4401837 172.75957875 316.61703679 162.42822266 321.78271484 C162.46302734 322.60771484 162.49783203 323.43271484 162.53369141 324.28271484 C162.95401789 342.2166448 159.5728898 359.55265372 146.92211914 372.96923828 C142.48646335 377.42507196 138.03482834 380.90200988 132.42822266 383.78271484 C131.76822266 383.78271484 131.10822266 383.78271484 130.42822266 383.78271484 C130.48042969 385.72210937 130.48042969 385.72210937 130.53369141 387.70068359 C130.8950439 406.6370144 128.26389347 422.43511529 114.63916016 436.60302734 C113.90955078 437.32232422 113.17994141 438.04162109 112.42822266 438.78271484 C111.58130859 439.64509766 111.58130859 439.64509766 110.71728516 440.52490234 C94.2482542 456.02989247 70.68343394 454.22671488 49.76025391 454.14599609 C47.07247842 454.14547592 44.38471864 454.14594847 41.69694519 454.14750671 C36.07647657 454.14838483 30.45612961 454.13742453 24.83569336 454.11889648 C18.42274551 454.09787101 12.00997716 454.0941932 5.59700185 454.10045844 C-0.65961679 454.10624875 -6.9161749 454.1003868 -13.17278481 454.0892849 C-15.79200351 454.08475051 -18.41112234 454.08425652 -21.03035545 454.08587074 C-44.31348258 454.08826806 -67.91423424 453.70540047 -90.88427734 449.53271484 C-92.74693237 449.2052124 -92.74693237 449.2052124 -94.6472168 448.87109375 C-116.78057914 444.86026451 -138.03088836 438.33405332 -159.39503479 431.4198761 C-163.92608375 429.87229278 -163.92608375 429.87229278 -168.57177734 428.78271484 C-170.65746028 430.30119921 -172.2943462 432.0690603 -174.08349609 433.92333984 C-180.27866037 438.55269337 -187.47476035 439.22632686 -194.98779297 439.17089844 C-196.32870247 439.17878387 -196.32870247 439.17878387 -197.69670105 439.18682861 C-200.62399255 439.19993075 -203.55073122 439.19132539 -206.47802734 439.18115234 C-208.52868757 439.18317589 -210.5793471 439.18608966 -212.63000488 439.18984985 C-216.9168181 439.19425996 -221.20344312 439.18788448 -225.49023438 439.17382812 C-230.96758254 439.15673716 -236.44448959 439.16658539 -241.92182159 439.18454552 C-246.15304856 439.19541885 -250.38417204 439.19192074 -254.61540222 439.18416214 C-256.63429314 439.18216994 -258.65319365 439.18458472 -260.67207336 439.1916008 C-263.50022038 439.19927386 -266.3276665 439.18752951 -269.15576172 439.17089844 C-270.39044441 439.18000748 -270.39044441 439.18000748 -271.65007019 439.18930054 C-279.35207203 439.1059697 -286.54455395 437.42321683 -292.38427734 432.15771484 C-293.09197266 431.54669922 -293.79966797 430.93568359 -294.52880859 430.30615234 C-299.80992036 423.78302002 -301.16314954 417.12195069 -301.07298279 408.90867615 C-301.07851718 407.95516315 -301.08405158 407.00165015 -301.08975369 406.01924282 C-301.10329377 402.84564719 -301.08842689 399.67284709 -301.07348633 396.49926758 C-301.07727188 394.21537951 -301.08277387 391.93149374 -301.08985901 389.64761353 C-301.10379909 383.45969214 -301.09265409 377.27204926 -301.07614779 371.0841434 C-301.06227887 364.60297356 -301.06875942 358.12181959 -301.07228088 351.64064026 C-301.07498134 340.75867131 -301.06160881 329.87681529 -301.03833008 318.99487305 C-301.01440604 307.80993555 -301.00732899 296.62514404 -301.01782227 285.44018555 C-301.03046189 271.94331768 -301.02792992 258.44656184 -301.01216316 244.94969368 C-301.00640902 239.80115239 -301.00648156 234.65265996 -301.01122856 229.50411797 C-301.01600498 223.44082267 -301.00586879 217.37772913 -300.98427391 211.3144722 C-300.97871524 209.09089018 -300.97823228 206.86728873 -300.98322678 204.64370537 C-300.98919463 201.60550391 -300.97664527 198.56791614 -300.9594574 195.5297699 C-300.96546744 194.65262075 -300.97147749 193.77547161 -300.97766966 192.87174219 C-300.88953942 184.2882851 -298.42216114 177.88712766 -292.54052734 171.54443359 C-285.79489026 165.50815914 -278.46627993 164.63320174 -269.72338867 164.62158203 C-268.83017914 164.61661713 -267.9369696 164.61165222 -267.01669312 164.60653687 C-264.06239041 164.59193583 -261.10814145 164.58511583 -258.15380859 164.57958984 C-256.0960032 164.57383568 -254.03819783 164.56807798 -251.98039246 164.56231689 C-247.66376496 164.55181205 -243.34715606 164.54596634 -239.03051758 164.54248047 C-233.51383457 164.53700395 -227.99739939 164.51299164 -222.48079395 164.48450851 C-218.22813717 164.46583223 -213.9755394 164.46067382 -209.72284508 164.45914459 C-207.68998552 164.45612763 -205.65712676 164.44813159 -203.62430763 164.43495941 C-200.77172959 164.41779832 -197.91974818 164.41980392 -195.06713867 164.42626953 C-194.23616165 164.41705475 -193.40518463 164.40783997 -192.54902649 164.39834595 C-186.045449 164.44424516 -180.20662033 165.76926597 -174.4823885 168.94009018 C-172.4631552 170.08689236 -172.4631552 170.08689236 -169.84545898 168.86743164 C-168.81799561 168.32771729 -167.79053223 167.78800293 -166.73193359 167.23193359 C-165.59256348 166.64001221 -164.45319336 166.04809082 -163.27929688 165.43823242 C-162.0636167 164.78347581 -160.8486217 164.12744562 -159.63427734 163.47021484 C-158.39594458 162.8120465 -157.15750042 162.15408772 -155.91894531 161.49633789 C-147.73358367 157.11350129 -139.86563291 152.57067607 -132.57177734 146.78271484 C-132.02392578 146.35394043 -131.47607422 145.92516602 -130.91162109 145.48339844 C-97.08245312 118.81549449 -88.60201665 69.26660839 -83.00927734 28.78271484 C-81.02561684 14.76052502 -75.98648416 4.92320651 -65.13427734 -4.38916016 C-46.81636431 -17.45742738 -17.28160647 -13.38398414 0 0 Z M-49.57177734 20.78271484 C-52.73522289 24.97394649 -54.14130997 28.11965546 -54.81005859 33.31396484 C-54.98633789 34.58409424 -55.16261719 35.85422363 -55.34423828 37.1628418 C-55.43153198 37.83336578 -55.51882568 38.50388977 -55.60876465 39.19473267 C-61.74702583 85.71375033 -73.94114849 138.9463284 -112.86450195 169.04394531 C-128.5359514 180.70826465 -146.14373598 189.06869416 -163.57177734 197.78271484 C-163.57177734 264.11271484 -163.57177734 330.44271484 -163.57177734 398.78271484 C-153.00067714 402.74687742 -142.54787397 406.53553024 -131.75927734 409.78271484 C-131.0541098 409.99582306 -130.34894226 410.20893127 -129.62240601 410.42849731 C-100.48554898 419.19098008 -70.85503266 424.88930004 -40.35864258 424.9597168 C-39.09684174 424.96628799 -37.83504089 424.97285919 -36.53500366 424.97962952 C-32.40013847 425.0003979 -28.26527397 425.0109969 -24.13037109 425.02099609 C-22.69549098 425.02505202 -21.26061104 425.02916917 -19.82573128 425.03334618 C-13.08801521 425.05232748 -6.3503097 425.06658039 0.38742787 425.07495815 C8.12548535 425.08474419 15.86325786 425.11112885 23.60121495 425.15145904 C29.61347097 425.18170598 35.62564553 425.19643457 41.63797611 425.19973916 C45.21588369 425.20207707 48.79348431 425.21087402 52.37130928 425.23620033 C56.36254797 425.26400718 60.35315274 425.25962386 64.34448242 425.25268555 C65.51102859 425.26549561 66.67757477 425.27830566 67.87947083 425.29150391 C76.77097135 425.23537748 84.2055818 423.49157879 91.74072266 418.65771484 C98.52446943 411.40068341 102.07341438 403.78305173 102.42822266 393.78271484 C101.9545894 389.24936795 100.86589546 385.09573325 99.42822266 380.78271484 C99.25845326 378.82897523 99.16216964 376.86826651 99.11572266 374.90771484 C99.07833984 373.87904297 99.04095703 372.85037109 99.00244141 371.79052734 C99.55311234 367.90046662 100.55697823 366.45829602 103.42822266 363.78271484 C106.04192148 362.65690085 108.48154942 361.74838194 111.17822266 360.90771484 C120.16886183 357.78985459 125.8444356 354.24408138 130.36572266 345.59521484 C134.66834349 336.33364118 134.28677279 327.71600495 131.11181641 318.13037109 C129.64801154 313.10324695 129.68578209 309.24009818 132.11572266 304.47021484 C135.72299124 300.27798379 138.93114567 298.88915735 144.17822266 297.53271484 C151.14927444 295.48911782 156.17972456 292.09405343 160.28759766 286.04443359 C164.99811627 277.39726728 166.82700113 268.68919316 164.29541016 259.04833984 C162.32365412 253.89690514 159.3386402 249.04171568 155.77978516 244.83349609 C152.97029431 240.57054034 153.5063716 235.62819446 154.42822266 230.78271484 C156.20793077 227.54875449 158.26022783 224.69365461 160.44384766 221.72021484 C164.97204792 215.01705225 166.18724519 207.5728786 165.12744141 199.61865234 C163.01838938 191.0646201 158.9605832 183.52105372 151.42822266 178.78271484 C143.51303824 174.5476227 136.19514507 174.21724398 127.35302734 174.28442383 C125.96228455 174.28059292 124.57154573 174.27496732 123.18081665 174.2677002 C120.20592608 174.25582074 117.23138891 174.25618288 114.25649261 174.26629448 C109.54922444 174.28194825 104.8423144 174.26811507 100.1350708 174.2502594 C90.9978559 174.21954402 81.86075248 174.21793515 72.72349548 174.21990967 C61.07852439 174.22130589 49.43363825 174.21093127 37.78872991 174.17133194 C33.11208677 174.156424 28.43576455 174.15664808 23.75911665 174.16880977 C20.85034359 174.17352614 17.94169304 174.16599332 15.03293991 174.15526581 C13.04700714 174.15172052 11.06106521 174.16312438 9.07516479 174.17500305 C7.88655853 174.16824554 6.69795227 174.16148804 5.47332764 174.15452576 C4.44468975 174.15511207 3.41605186 174.15569838 2.35624313 174.15630245 C-1.87666314 173.61622381 -5.21005991 172.00356496 -8.38427734 169.15771484 C-10.62450637 164.6772568 -11.23904881 160.23069299 -9.91162109 155.36083984 C-8.57254994 151.95623787 -7.01806888 148.68719902 -5.39990234 145.40771484 C8.1361936 117.28076224 12.00801625 83.19882868 2.55322266 53.22021484 C-2.40523845 39.81745719 -9.7323802 26.87493918 -23.15771484 20.56787109 C-31.9399347 16.94939048 -41.65215231 13.73047731 -49.57177734 20.78271484 Z " fill="#FEFEFE" transform="translate(553.57177734375,279.21728515625)"/>
<path d="M0 0 C26.73 0 53.46 0 81 0 C81 71.28 81 142.56 81 216 C54.27 216 27.54 216 0 216 C0 144.72 0 73.44 0 0 Z " fill="#040404" transform="translate(281,473)"/>
</svg>
