<?xml version="1.0" encoding="UTF-8"?>
<!DOCTYPE svg PUBLIC "-//W3C//DTD SVG 1.1//EN" "http://www.w3.org/Graphics/SVG/1.1/DTD/svg11.dtd">
<svg xmlns="http://www.w3.org/2000/svg" version="1.1" width="1000px" height="1000px" style="shape-rendering:geometricPrecision; text-rendering:geometricPrecision; image-rendering:optimizeQuality; fill-rule:evenodd; clip-rule:evenodd" xmlns:xlink="http://www.w3.org/1999/xlink">
<g><path style="opacity:1" fill="#000000" d="M -0.5,-0.5 C 332.833,-0.5 666.167,-0.5 999.5,-0.5C 999.5,332.833 999.5,666.167 999.5,999.5C 666.167,999.5 332.833,999.5 -0.5,999.5C -0.5,666.167 -0.5,332.833 -0.5,-0.5 Z"/></g>
<g><path style="opacity:1" fill="#f3f3f3" d="M 672.5,644.5 C 663.167,644.5 653.833,644.5 644.5,644.5C 644.5,654.5 644.5,664.5 644.5,674.5C 642.879,691.896 633.879,703.729 617.5,710C 607.11,712.664 597.11,711.664 587.5,707C 557.167,686.667 526.833,666.333 496.5,646C 439.833,645.667 383.167,645.333 326.5,645C 294.467,640.966 275.3,623.133 269,591.5C 268.333,501.5 268.333,411.5 269,321.5C 273.576,296.923 287.576,280.257 311,271.5C 314.75,270.292 318.584,269.458 322.5,269C 440.5,268.333 558.5,268.333 676.5,269C 701.62,273.118 718.62,287.118 727.5,311C 728.708,314.75 729.542,318.584 730,322.5C 730.667,412.167 730.667,501.833 730,591.5C 723.751,623.251 704.585,640.917 672.5,644.5 Z"/></g>
<g><path style="opacity:1" fill="#000000" d="M 325.5,303.5 C 441.5,303.333 557.5,303.5 673.5,304C 685.131,305.633 692.297,312.133 695,323.5C 695.667,412.167 695.667,500.833 695,589.5C 693.387,599.78 687.553,606.28 677.5,609C 660.5,609.333 643.5,609.667 626.5,610C 619.263,611.568 614.096,615.734 611,622.5C 610.667,639.833 610.333,657.167 610,674.5C 607.879,676.457 605.379,676.957 602.5,676C 570.167,654.333 537.833,632.667 505.5,611C 444.203,609.685 382.87,609.019 321.5,609C 311.375,605.963 305.542,599.129 304,588.5C 303.333,500.833 303.333,413.167 304,325.5C 306.013,312.989 313.179,305.655 325.5,303.5 Z"/></g>
<g><path style="opacity:1" fill="#f2f2f2" d="M 370.5,353.5 C 456.501,353.333 542.501,353.5 628.5,354C 637.704,356.371 643.371,362.205 645.5,371.5C 643.371,380.795 637.704,386.629 628.5,389C 542.5,389.667 456.5,389.667 370.5,389C 361.296,386.629 355.629,380.795 353.5,371.5C 355.814,362.19 361.48,356.19 370.5,353.5 Z"/></g>
<g><path style="opacity:1" fill="#f2f2f2" d="M 366.5,439.5 C 455.167,439.333 543.834,439.5 632.5,440C 645.616,446.967 648.116,456.467 640,468.5C 637.047,470.726 633.88,472.559 630.5,474C 543.167,474.667 455.833,474.667 368.5,474C 360.27,471.221 355.27,465.554 353.5,457C 355.014,448.997 359.348,443.163 366.5,439.5 Z"/></g>
<g><path style="opacity:1" fill="#f2f2f2" d="M 368.5,524.5 C 455.834,524.333 543.167,524.5 630.5,525C 644.604,530.346 648.104,539.512 641,552.5C 638.617,555.273 635.783,557.439 632.5,559C 543.833,559.667 455.167,559.667 366.5,559C 353.95,552.601 351.116,543.435 358,531.5C 360.998,528.262 364.498,525.929 368.5,524.5 Z"/></g>
<g><path style="opacity:1" fill="#757675" d="M 672.5,644.5 C 663.682,645.493 654.682,645.827 645.5,645.5C 645.827,655.348 645.494,665.014 644.5,674.5C 644.5,664.5 644.5,654.5 644.5,644.5C 653.833,644.5 663.167,644.5 672.5,644.5 Z"/></g>
</svg>
