<?xml version="1.0" encoding="UTF-8"?>
<!DOCTYPE svg PUBLIC "-//W3C//DTD SVG 1.1//EN" "http://www.w3.org/Graphics/SVG/1.1/DTD/svg11.dtd">
<svg xmlns="http://www.w3.org/2000/svg" version="1.1" width="1000px" height="1000px" style="shape-rendering:geometricPrecision; text-rendering:geometricPrecision; image-rendering:optimizeQuality; fill-rule:evenodd; clip-rule:evenodd" xmlns:xlink="http://www.w3.org/1999/xlink">
<g><path style="opacity:1" fill="#000000" d="M -0.5,-0.5 C 332.833,-0.5 666.167,-0.5 999.5,-0.5C 999.5,332.833 999.5,666.167 999.5,999.5C 666.167,999.5 332.833,999.5 -0.5,999.5C -0.5,666.167 -0.5,332.833 -0.5,-0.5 Z"/></g>
<g><path style="opacity:1" fill="#f8f8f8" d="M 353.5,241.5 C 450.834,241.333 548.167,241.5 645.5,242C 670.285,244.782 685.785,258.282 692,282.5C 692.667,430.5 692.667,578.5 692,726.5C 685.636,744.777 672.802,755.11 653.5,757.5C 645.496,756.888 638.163,754.388 631.5,750C 592.076,711.579 552.743,672.579 513.5,633C 504.734,627.449 495.734,627.116 486.5,632C 448.833,669.667 411.167,707.333 373.5,745C 358.583,758.512 342.249,760.512 324.5,751C 315.957,744.787 310.123,736.62 307,726.5C 306.333,578.5 306.333,430.5 307,282.5C 313.376,258.281 328.876,244.614 353.5,241.5 Z"/></g>
</svg>
