<?xml version="1.0" encoding="UTF-8"?>
<!DOCTYPE svg PUBLIC "-//W3C//DTD SVG 1.1//EN" "http://www.w3.org/Graphics/SVG/1.1/DTD/svg11.dtd">
<svg xmlns="http://www.w3.org/2000/svg" version="1.1" width="1000px" height="1000px" style="shape-rendering:geometricPrecision; text-rendering:geometricPrecision; image-rendering:optimizeQuality; fill-rule:evenodd; clip-rule:evenodd" xmlns:xlink="http://www.w3.org/1999/xlink">
<g><path style="opacity:1" fill="#000000" d="M -0.5,-0.5 C 332.833,-0.5 666.167,-0.5 999.5,-0.5C 999.5,332.833 999.5,666.167 999.5,999.5C 666.167,999.5 332.833,999.5 -0.5,999.5C -0.5,666.167 -0.5,332.833 -0.5,-0.5 Z"/></g>
<g><path style="opacity:1" fill="#f7f7f7" d="M 584.5,552.5 C 584.5,527.833 584.5,503.167 584.5,478.5C 573.321,478.172 562.321,478.505 551.5,479.5C 482.189,484.983 431.689,518.649 400,580.5C 388.211,589.306 378.544,587.306 371,574.5C 360.966,478.415 396.466,404.915 477.5,354C 503.877,338.929 532.21,330.429 562.5,328.5C 569.833,328.5 577.167,328.5 584.5,328.5C 584.5,303.833 584.5,279.167 584.5,254.5C 590.546,241.909 599.546,239.076 611.5,246C 657.97,294.804 704.803,343.304 752,391.5C 759.243,400.062 758.91,408.396 751,416.5C 704.136,464.363 657.636,512.53 611.5,561C 599.601,567.936 590.601,565.102 584.5,552.5 Z"/></g>
<g><path style="opacity:1" fill="#757675" d="M 584.5,254.5 C 584.5,279.167 584.5,303.833 584.5,328.5C 577.167,328.5 569.833,328.5 562.5,328.5C 569.313,327.509 576.313,327.175 583.5,327.5C 583.169,302.994 583.502,278.661 584.5,254.5 Z"/></g>
<g><path style="opacity:1" fill="#010101" d="M 618.5,302.5 C 651.149,335.816 683.482,369.483 715.5,403.5C 683.516,437.318 651.349,470.985 619,504.5C 618.667,489.167 618.333,473.833 618,458.5C 615.5,452 611,447.5 604.5,445C 585.167,444.333 565.833,444.333 546.5,445C 491.115,449.114 444.615,471.28 407,511.5C 418.167,445.993 454.334,400.16 515.5,374C 544.347,364.148 574.013,360.148 604.5,362C 611,359.5 615.5,355 618,348.5C 618.5,333.17 618.667,317.837 618.5,302.5 Z"/></g>
<g><path style="opacity:1" fill="#f2f2f2" d="M 292.5,327.5 C 322.169,327.333 351.835,327.5 381.5,328C 396.596,336.351 398.263,346.684 386.5,359C 384.725,360.439 382.725,361.439 380.5,362C 352.5,362.333 324.5,362.667 296.5,363C 288.361,364.468 282.528,368.968 279,376.5C 277.342,485.457 277.008,594.457 278,703.5C 280.5,712.667 286.333,718.5 295.5,721C 431.5,721.667 567.5,721.667 703.5,721C 712.667,718.5 718.5,712.667 721,703.5C 721.333,640.5 721.667,577.5 722,514.5C 723.082,508.396 726.249,503.563 731.5,500C 737.359,496.756 743.025,497.089 748.5,501C 753.43,504.247 756.264,508.747 757,514.5C 757.667,576.167 757.667,637.833 757,699.5C 753.887,724.287 741.053,742.12 718.5,753C 712.332,755.125 705.999,756.459 699.5,757C 566.167,757.667 432.833,757.667 299.5,757C 274.379,754.351 256.546,741.518 246,718.5C 243.772,712.36 242.439,706.026 242,699.5C 241.333,594.5 241.333,489.5 242,384.5C 246.306,354.362 263.14,335.362 292.5,327.5 Z"/></g>
<g><path style="opacity:1" fill="#757675" d="M 551.5,479.5 C 562.321,478.505 573.321,478.172 584.5,478.5C 584.5,503.167 584.5,527.833 584.5,552.5C 583.502,528.339 583.169,504.006 583.5,479.5C 572.833,479.5 562.167,479.5 551.5,479.5 Z"/></g>
</svg>
